<svg width="1200" height="630" viewBox="0 0 1200 630" fill="none" xmlns="http://www.w3.org/2000/svg">
  <rect width="1200" height="630" rx="36" fill="#F7F3ED"/>
  <rect x="32" y="32" width="1136" height="566" rx="28" fill="url(#bg)"/>
  <rect x="80" y="86" width="242" height="56" rx="28" fill="#FFF1D6"/>
  <text x="118" y="122" fill="#9A5310" font-family="Arial, sans-serif" font-size="28" font-weight="700">EHIME AREA GUIDE</text>
  <text x="80" y="224" fill="#16313A" font-family="Arial, sans-serif" font-size="72" font-weight="700">Local Lessons</text>
  <text x="80" y="292" fill="#29505C" font-family="Arial, sans-serif" font-size="32" font-weight="600">Start from the area you can actually reach.</text>
  <rect x="768" y="124" width="296" height="360" rx="32" fill="#173B45"/>
  <rect x="842" y="174" width="148" height="78" rx="39" fill="#F5E4C2"/>
  <rect x="842" y="268" width="148" height="88" rx="44" fill="#F5E4C2"/>
  <rect x="842" y="372" width="148" height="70" rx="35" fill="#F5E4C2"/>
  <text x="884" y="222" fill="#922F2F" font-family="Arial, sans-serif" font-size="26" font-weight="700">TOHYO</text>
  <text x="880" y="321" fill="#922F2F" font-family="Arial, sans-serif" font-size="26" font-weight="700">CHUYO</text>
  <text x="880" y="416" fill="#922F2F" font-family="Arial, sans-serif" font-size="26" font-weight="700">NANYO</text>
  <rect x="80" y="374" width="200" height="74" rx="22" fill="#FFFFFF"/>
  <rect x="300" y="374" width="200" height="74" rx="22" fill="#FFFFFF"/>
  <rect x="520" y="374" width="200" height="74" rx="22" fill="#FFFFFF"/>
  <text x="114" y="420" fill="#16313A" font-family="Arial, sans-serif" font-size="28" font-weight="700">Town guides</text>
  <text x="334" y="420" fill="#16313A" font-family="Arial, sans-serif" font-size="28" font-weight="700">Need guides</text>
  <text x="554" y="420" fill="#16313A" font-family="Arial, sans-serif" font-size="28" font-weight="700">Age guides</text>
  <defs>
    <linearGradient id="bg" x1="80" y1="80" x2="1100" y2="560" gradientUnits="userSpaceOnUse">
      <stop stop-color="#FFF9F1"/>
      <stop offset="1" stop-color="#E5EFF1"/>
    </linearGradient>
  </defs>
</svg>
