<svg width="1200" height="630" viewBox="0 0 1200 630" fill="none" xmlns="http://www.w3.org/2000/svg">
  <rect width="1200" height="630" rx="36" fill="#F7F1E7"/>
  <rect x="32" y="32" width="1136" height="566" rx="28" fill="url(#bg)"/>
  <rect x="80" y="86" width="216" height="56" rx="28" fill="#FFF4D8"/>
  <text x="124" y="122" fill="#8C4B00" font-family="Arial, sans-serif" font-size="28" font-weight="700">EHIME LOCAL</text>
  <text x="80" y="240" fill="#173B45" font-family="Arial, sans-serif" font-size="76" font-weight="700">LessonMap</text>
  <text x="80" y="310" fill="#264653" font-family="Arial, sans-serif" font-size="34" font-weight="600">Compare lessons by area, age, and fit.</text>
  <rect x="80" y="372" width="218" height="84" rx="24" fill="#FFFFFF"/>
  <rect x="318" y="372" width="218" height="84" rx="24" fill="#FFFFFF"/>
  <rect x="556" y="372" width="218" height="84" rx="24" fill="#FFFFFF"/>
  <text x="116" y="408" fill="#8C4B00" font-family="Arial, sans-serif" font-size="22" font-weight="700">AREA</text>
  <text x="116" y="438" fill="#173B45" font-family="Arial, sans-serif" font-size="28" font-weight="700">Tohyo / Chuyo / Nanyo</text>
  <text x="354" y="408" fill="#8C4B00" font-family="Arial, sans-serif" font-size="22" font-weight="700">FILTER</text>
  <text x="354" y="438" fill="#173B45" font-family="Arial, sans-serif" font-size="28" font-weight="700">Kids / Adult / Beginner</text>
  <text x="592" y="408" fill="#8C4B00" font-family="Arial, sans-serif" font-size="22" font-weight="700">COMPARE</text>
  <text x="592" y="438" fill="#173B45" font-family="Arial, sans-serif" font-size="28" font-weight="700">Price / Trial / Access</text>
  <g opacity="0.88">
    <rect x="854" y="134" width="216" height="318" rx="28" fill="#173B45"/>
    <rect x="902" y="174" width="120" height="168" rx="56" fill="#F5D7A1"/>
    <text x="914" y="242" fill="#8C2F2F" font-family="Arial, sans-serif" font-size="28" font-weight="700">MAP</text>
    <text x="890" y="496" fill="#FFFFFF" font-family="Arial, sans-serif" font-size="34" font-weight="700">Find your area</text>
  </g>
  <defs>
    <linearGradient id="bg" x1="80" y1="86" x2="1102" y2="566" gradientUnits="userSpaceOnUse">
      <stop stop-color="#FFF8EC"/>
      <stop offset="1" stop-color="#E8F0F2"/>
    </linearGradient>
  </defs>
</svg>
