<svg width="1200" height="630" viewBox="0 0 1200 630" fill="none" xmlns="http://www.w3.org/2000/svg">
  <rect width="1200" height="630" rx="36" fill="#EEF5F2"/>
  <rect x="30" y="30" width="1140" height="570" rx="30" fill="url(#bg)"/>
  <path d="M72 468C182 402 269 323 377 301C483 279 592 318 680 284C789 242 847 160 948 154C1018 150 1081 183 1128 227V566H72V468Z" fill="url(#hill)" opacity="0.88"/>
  <path d="M65 510C159 452 240 420 336 413C439 406 523 451 623 445C708 440 783 396 866 382C961 365 1047 382 1135 434V566H65V510Z" fill="#A9D5C5" opacity="0.95"/>
  <path d="M110 144C164 96 242 74 321 86C398 98 438 148 507 164C588 183 663 154 742 172C824 191 877 244 962 252C1028 258 1089 241 1140 210" stroke="#BFE4D7" stroke-width="18" stroke-linecap="round"/>
  <path d="M142 206C219 228 308 236 377 218C448 200 503 160 578 154C656 149 705 176 774 203C852 234 936 248 1046 236" stroke="#DFF3EB" stroke-width="10" stroke-linecap="round" opacity="0.95"/>
  <circle cx="246" cy="210" r="20" fill="#1E7B5C"/>
  <circle cx="246" cy="210" r="8" fill="#F5FFFB"/>
  <circle cx="518" cy="176" r="15" fill="#2B8E6C"/>
  <circle cx="518" cy="176" r="6" fill="#F5FFFB"/>
  <circle cx="812" cy="220" r="18" fill="#236F56"/>
  <circle cx="812" cy="220" r="7" fill="#F5FFFB"/>
  <rect x="112" y="90" width="170" height="48" rx="24" fill="#FFFFFF" opacity="0.72"/>
  <rect x="924" y="98" width="146" height="44" rx="22" fill="#FFFFFF" opacity="0.54"/>
  <rect x="898" y="392" width="188" height="108" rx="28" fill="#FFFFFF" opacity="0.44"/>
  <rect x="120" y="382" width="216" height="98" rx="28" fill="#FFFFFF" opacity="0.38"/>
  <defs>
    <linearGradient id="bg" x1="104" y1="76" x2="1080" y2="562" gradientUnits="userSpaceOnUse">
      <stop stop-color="#F7FFFB"/>
      <stop offset="1" stop-color="#DDEEE8"/>
    </linearGradient>
    <linearGradient id="hill" x1="438" y1="168" x2="795" y2="538" gradientUnits="userSpaceOnUse">
      <stop stop-color="#D8EFE6"/>
      <stop offset="1" stop-color="#7FB9A5"/>
    </linearGradient>
  </defs>
</svg>
