<svg width="1600" height="1100" viewBox="0 0 1600 1100" fill="none" xmlns="http://www.w3.org/2000/svg">
  <defs>
    <linearGradient id="bg" x1="152" y1="116" x2="1372" y2="984" gradientUnits="userSpaceOnUse">
      <stop stop-color="#FFF7F2"/>
      <stop offset="1" stop-color="#FFFDFC"/>
    </linearGradient>
    <radialGradient id="glowA" cx="0" cy="0" r="1" gradientUnits="userSpaceOnUse" gradientTransform="translate(442 316) rotate(33.6) scale(422 358)">
      <stop stop-color="#E06B43" stop-opacity="0.26"/>
      <stop offset="1" stop-color="#E06B43" stop-opacity="0"/>
    </radialGradient>
    <radialGradient id="glowB" cx="0" cy="0" r="1" gradientUnits="userSpaceOnUse" gradientTransform="translate(1118 350) rotate(129.4) scale(446 401)">
      <stop stop-color="#C92A2A" stop-opacity="0.18"/>
      <stop offset="1" stop-color="#C92A2A" stop-opacity="0"/>
    </radialGradient>
    <radialGradient id="glowC" cx="0" cy="0" r="1" gradientUnits="userSpaceOnUse" gradientTransform="translate(934 836) rotate(142.7) scale(435 282)">
      <stop stop-color="#85A456" stop-opacity="0.18"/>
      <stop offset="1" stop-color="#85A456" stop-opacity="0"/>
    </radialGradient>
    <filter id="shadow" x="170" y="132" width="1260" height="850" filterUnits="userSpaceOnUse" color-interpolation-filters="sRGB">
      <feFlood flood-opacity="0" result="BackgroundImageFix"/>
      <feColorMatrix in="SourceAlpha" type="matrix" values="0 0 0 0 0 0 0 0 0 0 0 0 0 0 0 0 0 0 127 0" result="hardAlpha"/>
      <feOffset dy="24"/>
      <feGaussianBlur stdDeviation="28"/>
      <feColorMatrix type="matrix" values="0 0 0 0 0.133333 0 0 0 0 0.133333 0 0 0 0 0.133333 0 0 0 0.08 0"/>
      <feBlend mode="normal" in2="BackgroundImageFix" result="effect1_dropShadow_1_1"/>
      <feBlend mode="normal" in="SourceGraphic" in2="effect1_dropShadow_1_1" result="shape"/>
    </filter>
    <clipPath id="cardA">
      <rect x="238" y="210" width="444" height="300" rx="36"/>
    </clipPath>
    <clipPath id="cardB">
      <rect x="772" y="176" width="512" height="360" rx="40"/>
    </clipPath>
    <clipPath id="cardC">
      <rect x="474" y="566" width="604" height="332" rx="40"/>
    </clipPath>
  </defs>

  <rect width="1600" height="1100" rx="56" fill="url(#bg)"/>
  <ellipse cx="442" cy="316" rx="422" ry="358" fill="url(#glowA)"/>
  <ellipse cx="1118" cy="350" rx="446" ry="401" fill="url(#glowB)"/>
  <ellipse cx="934" cy="836" rx="435" ry="282" fill="url(#glowC)"/>

  <g filter="url(#shadow)">
    <rect x="224" y="196" width="472" height="328" rx="40" fill="white" fill-opacity="0.74"/>
    <g clip-path="url(#cardA)">
      <image href="imabari-lessons.jpg" x="238" y="210" width="444" height="300" preserveAspectRatio="xMidYMid slice"/>
      <rect x="238" y="210" width="444" height="300" fill="#F9F0EA" fill-opacity="0.14"/>
    </g>
    <rect x="238.5" y="210.5" width="443" height="299" rx="35.5" stroke="white" stroke-opacity="0.55"/>

    <rect x="756" y="160" width="544" height="392" rx="44" fill="white" fill-opacity="0.72"/>
    <g clip-path="url(#cardB)">
      <image href="../og/Shimanami_260327.jpg" x="772" y="176" width="512" height="360" preserveAspectRatio="xMidYMid slice"/>
      <rect x="772" y="176" width="512" height="360" fill="#FFF8F3" fill-opacity="0.1"/>
    </g>
    <rect x="772.5" y="176.5" width="511" height="359" rx="39.5" stroke="white" stroke-opacity="0.6"/>

    <rect x="458" y="550" width="636" height="364" rx="44" fill="white" fill-opacity="0.7"/>
    <g clip-path="url(#cardC)">
      <image href="ozu-lessons.jpg" x="474" y="566" width="604" height="332" preserveAspectRatio="xMidYMid slice"/>
      <rect x="474" y="566" width="604" height="332" fill="#FFF7F1" fill-opacity="0.08"/>
    </g>
    <rect x="474.5" y="566.5" width="603" height="331" rx="39.5" stroke="white" stroke-opacity="0.62"/>
  </g>

  <circle cx="1254" cy="230" r="12" fill="#C92A2A" fill-opacity="0.24"/>
  <circle cx="320" cy="606" r="14" fill="#E58D64" fill-opacity="0.22"/>
  <circle cx="1188" cy="796" r="16" fill="#85A456" fill-opacity="0.24"/>
</svg>
